# xmcd CD database file
#
# Track frame offsets:
#	150
#	20562
#	50463
#	75683
#	97621
#	119256
#	135442
#	174314
#	203764
#	220246
#	238088
#	258216
#
# Disc length: 3756 seconds
#
# Revision: 3
# Processed by: cddbd v1.5.2PL0 Copyright (c) Steve Scherf et al.
# Submitted via: CDex 1.70
#
DISCID=950eaa0c
DTITLE=Songs Of BOB DYLAN - Tangled Up In Blues
DYEAR=1999
DGENRE=Blues
TTITLE0=It Takes A Lot To Laugh, It Takes A Train To Cry(Taj Mahal)
TTITLE1=Gotta Serve Somebody(Mavis Staples)
TTITLE2=Lay Lady Lay(Isaac Hayes)
TTITLE3=Everything Is Broken(R.L.Burnside)
TTITLE4=Pledging My Time(Luther ''Guitar Jr.'' Johnson)
TTITLE5=I'll Be Your Baby Tonight(John Hammond)
TTITLE6=Ballad Of A Thin Man(James Solberg)
TTITLE7=Million Miles(Alvin ''Youngblood'' Hart)
TTITLE8=Watching The River Flow(Leon Russell)
TTITLE9=Wallflower(The Holmes Brothers)
TTITLE10=All Along The Watchtower(Larry McCray)
TTITLE11=One Too Many Mornings(The Band)
EXTD=YEAR: 1999
EXTT0=
EXTT1=
EXTT2=
EXTT3=
EXTT4=
EXTT5=
EXTT6=
EXTT7=
EXTT8=
EXTT9=
EXTT10=
EXTT11=
PLAYORDER=
